Coordinates
version=1
nRows=49
nColumns=12
inDegrees=yes

Units are S.I. units (second, meters, Newtons, ...)
Angles are in degrees

endheader
time	SC_y	SC_z	SC_x	AC_y	AC_z	AC_x	GH_y	GH_z	GH_yy	EL_x	PS_y
       0.0              -43.24          31.28          28.92          52.55         -13.15          7.779         -79.98          74.65         -1.901          46.11          23.18
   0.02011              -43.24          31.28          28.92          52.55         -13.14          7.775         -79.97          74.65         -1.911          46.11          23.18
   0.04022              -43.24          31.28          28.93          52.55         -13.14          7.772         -79.97          74.65         -1.921          46.11          23.17
   0.06032              -43.23          31.28          28.93          52.55         -13.14          7.767         -79.96          74.64         -1.933          46.11          23.17
   0.08043              -43.23          31.28          28.94          52.55         -13.14          7.763         -79.95          74.64         -1.945           46.1          23.17
    0.1005              -43.23          31.28          28.94          52.55         -13.14          7.759         -79.95          74.64         -1.958           46.1          23.17
    0.1206              -43.23          31.28          28.95          52.55         -13.14          7.754         -79.94          74.64         -1.972           46.1          23.17
    0.1408              -43.22          31.28          28.95          52.55         -13.14          7.749         -79.93          74.64         -1.987           46.1          23.16
    0.1609              -43.22          31.28          28.96          52.55         -13.14          7.743         -79.92          74.64         -2.002          46.09          23.16
     0.181              -43.22          31.28          28.97          52.55         -13.14          7.737         -79.91          74.64         -2.019          46.09          23.16
    0.2011              -43.21          31.29          28.97          52.55         -13.13          7.731          -79.9          74.63         -2.038          46.09          23.16
    0.2212              -43.21          31.29          28.98          52.54         -13.13          7.724         -79.89          74.63         -2.057          46.09          23.15
    0.2413               -43.2          31.29          28.99          52.54         -13.13          7.716         -79.88          74.63         -2.079          46.08          23.15
    0.2614               -43.2          31.29           29.0          52.54         -13.13          7.708         -79.87          74.63         -2.101          46.08          23.15
    0.2815              -43.19          31.29          29.01          52.54         -13.13          7.699         -79.85          74.63         -2.126          46.07          23.14
    0.3016              -43.19          31.29          29.02          52.54         -13.12           7.69         -79.84          74.62         -2.153          46.07          23.14
    0.3217              -43.18          31.29          29.03          52.54         -13.12           7.68         -79.82          74.62         -2.182          46.06          23.13
    0.3418              -43.17           31.3          29.04          52.54         -13.12          7.668         -79.81          74.62         -2.214          46.06          23.13
    0.3619              -43.17           31.3          29.06          52.53         -13.12          7.656         -79.79          74.61         -2.249          46.05          23.12
     0.382              -43.16           31.3          29.07          52.53         -13.11          7.643         -79.77          74.61         -2.287          46.05          23.12
    0.4022              -43.15           31.3          29.09          52.53         -13.11          7.628         -79.74          74.61         -2.328          46.04          23.11
    0.4223              -43.14          31.31          29.11          52.53         -13.11          7.612         -79.72           74.6         -2.374          46.03           23.1
    0.4424              -43.13          31.31          29.13          52.52          -13.1          7.594         -79.69           74.6         -2.425          46.02          23.09
    0.4625              -43.11          31.31          29.15          52.52          -13.1          7.574         -79.66          74.59         -2.481          46.02          23.09
    0.4826               -43.1          31.32          29.17          52.52         -13.09          7.552         -79.63          74.59         -2.544           46.0          23.08
    0.5027              -43.09          31.32           29.2          52.51         -13.09          7.528         -79.59          74.58         -2.613          45.99          23.07
    0.5228              -43.07          31.33          29.23          52.51         -13.08            7.5         -79.54          74.57         -2.692          45.98          23.05
    0.5429              -43.05          31.33          29.26           52.5         -13.07          7.469          -79.5          74.56         -2.779          45.97          23.04
     0.563              -43.03          31.34           29.3           52.5         -13.06          7.434         -79.44          74.56         -2.879          45.95          23.02
    0.5831               -43.0          31.35          29.35          52.49         -13.05          7.395         -79.38          74.54         -2.991          45.93          23.01
    0.6032              -42.98          31.35           29.4          52.48         -13.04          7.349         -79.31          74.53          -3.12          45.91          22.99
    0.6233              -42.94          31.36          29.46          52.48         -13.03          7.297         -79.23          74.52         -3.268          45.88          22.96
    0.6434              -42.91          31.37          29.52          52.47         -13.02          7.237         -79.13           74.5         -3.438          45.86          22.94
    0.6636              -42.86          31.39           29.6          52.45          -13.0          7.167         -79.02          74.48         -3.636          45.82          22.91
    0.6837              -42.81           31.4          29.69          52.44         -12.98          7.086          -78.9          74.46         -3.868          45.78          22.87
    0.7038              -42.75          31.42           29.8          52.43         -12.96          6.989         -78.75          74.44         -4.141          45.74          22.83
    0.7239              -42.68          31.44          29.93          52.41         -12.93          6.875         -78.57          74.41         -4.466          45.69          22.78
     0.744               -42.6          31.47          30.08          52.39          -12.9          6.738         -78.35          74.37         -4.855          45.62          22.72
    0.7641              -42.49           31.5          30.27          52.36         -12.86          6.572          -78.1          74.32         -5.326          45.54          22.64
    0.7842              -42.37          31.53          30.49          52.33         -12.81          6.369         -77.78          74.27         -5.901          45.45          22.55
    0.8043              -42.21          31.58          30.77          52.29         -12.75          6.119         -77.39           74.2         -6.611          45.33          22.44
    0.8244              -42.02          31.63          31.12          52.24         -12.67          5.807          -76.9          74.12         -7.496          45.18           22.3
    0.8445              -41.78          31.71          31.56          52.17         -12.58          5.414         -76.29          74.01         -8.611           45.0          22.13
    0.8646              -41.47           31.8          32.12          52.09         -12.46          4.915         -75.51          73.88         -10.03          44.76          21.91
    0.8847              -41.07          31.91          32.83          51.99         -12.31          4.276         -74.51          73.71         -11.84          44.46          21.63
    0.9048              -40.56          32.06          33.75          51.86         -12.11          3.455         -73.23          73.49         -14.17          44.07          21.26
     0.925              -39.92          32.25          34.92          51.69         -11.86          2.407          -71.6          73.21         -17.15          43.58           20.8
    0.9451               -39.1          32.49          36.39          51.48         -11.55          1.089         -69.54          72.85         -20.88          42.96          20.21
    0.9652               -38.1          32.78          38.18          51.22         -11.17        -0.5163         -67.04          72.42         -25.44           42.2           19.5
